<svg width="1200" height="420" viewBox="0 0 1200 420" fill="none" xmlns="http://www.w3.org/2000/svg" role="img" aria-labelledby="title desc">
  <title id="title">Omadia logo concept</title>
  <desc id="desc">A clean Omadia wordmark with an agentic operating-system mark in byte5 blue, dark blue, and magenta.</desc>
  <rect width="1200" height="420" rx="34" fill="#F4F7FA"/>
  <rect x="32" y="32" width="1136" height="356" rx="28" fill="url(#heroWash)" stroke="rgba(0,75,115,0.12)" stroke-width="2"/>

  <g transform="translate(114 92)">
    <circle cx="118" cy="118" r="94" fill="#FFFFFF" stroke="#D3DDE5" stroke-width="2"/>
    <path d="M118 37C162.735 37 199 73.2649 199 118C199 162.735 162.735 199 118 199C73.2649 199 37 162.735 37 118C37 73.2649 73.2649 37 118 37Z" stroke="#004B73" stroke-width="18"/>
    <path d="M118 37C146.607 37 171.75 51.8406 186.141 74.2543" stroke="#009FE3" stroke-width="18" stroke-linecap="round"/>
    <path d="M74 188L188 74" stroke="#009FE3" stroke-width="18" stroke-linecap="round"/>
    <path d="M71 73L165 167" stroke="#004B73" stroke-width="18" stroke-linecap="round"/>
    <circle cx="188" cy="74" r="17" fill="#EA5172"/>
    <circle cx="74" cy="188" r="13" fill="#009FE3"/>
    <circle cx="71" cy="73" r="13" fill="#004B73"/>
    <circle cx="165" cy="167" r="13" fill="#004B73"/>
  </g>

  <g transform="translate(365 118)">
    <text x="0" y="96" fill="#004B73" font-family="Days One, Nunito Sans, Avenir Next, system-ui, sans-serif" font-size="104" font-weight="400" letter-spacing="0">Omadia</text>
    <text x="2" y="154" fill="#5F6E7B" font-family="Nunito Sans, Avenir Next, system-ui, sans-serif" font-size="25" font-weight="800" letter-spacing="5.2">AN AGENTIC OS</text>
    <rect x="4" y="190" width="410" height="4" rx="2" fill="#009FE3"/>
    <circle cx="446" cy="192" r="8" fill="#EA5172"/>
    <circle cx="480" cy="192" r="8" fill="#004B73"/>
  </g>

  <defs>
    <radialGradient id="heroWash" cx="0" cy="0" r="1" gradientUnits="userSpaceOnUse" gradientTransform="translate(122 48) rotate(18.9483) scale(960.094 414.548)">
      <stop stop-color="#B7E5F8"/>
      <stop offset="0.58" stop-color="#E8F2F8"/>
      <stop offset="1" stop-color="#FFFFFF"/>
    </radialGradient>
  </defs>
</svg>
